PathFileType	4	(X/Y/Z)	/Users/itak/Documents/Research/Walk-IL/dataset/trc/00067_00006.trc
DataRate	CameraRate	NumFrames	NumMarkers	Units	OrigDataRate	OrigDataStartFrame	OrigNumFrames
100.000000	100.000000	4	53	mm	100.000000	85	680
Frame#	Time	RPSI			LPSI			L3			STRN			T10			C7			CLAV			RBAK			LBAK			LSHO			LUPA			LAEL			LAOL			LWTS			LWPS			LFRA			LIFD			LHPS			LHTS			RSHO			RUPA			RAEL			RAOL			RWTS			RWPS			RFRA			RIFD			RHTS			RHPS			RBHD			LFHD			RFHD			LBHD			LHIP			RHIP			RASI			LASI			LKNE			LTHI			LANK			LTIP			LTOE			LMT1			LMT5			LHEE			RKNE			RTHI			RANK			RTIP			RTOE			RMT1			RMT5			RHEE			
		X1	Y1	Z1	X2	Y2	Z2	X3	Y3	Z3	X4	Y4	Z4	X5	Y5	Z5	X6	Y6	Z6	X7	Y7	Z7	X8	Y8	Z8	X9	Y9	Z9	X10	Y10	Z10	X11	Y11	Z11	X12	Y12	Z12	X13	Y13	Z13	X14	Y14	Z14	X15	Y15	Z15	X16	Y16	Z16	X17	Y17	Z17	X18	Y18	Z18	X19	Y19	Z19	X20	Y20	Z20	X21	Y21	Z21	X22	Y22	Z22	X23	Y23	Z23	X24	Y24	Z24	X25	Y25	Z25	X26	Y26	Z26	X27	Y27	Z27	X28	Y28	Z28	X29	Y29	Z29	X30	Y30	Z30	X31	Y31	Z31	X32	Y32	Z32	X33	Y33	Z33	X34	Y34	Z34	X35	Y35	Z35	X36	Y36	Z36	X37	Y37	Z37	X38	Y38	Z38	X39	Y39	Z39	X40	Y40	Z40	X41	Y41	Z41	X42	Y42	Z42	X43	Y43	Z43	X44	Y44	Z44	X45	Y45	Z45	X46	Y46	Z46	X47	Y47	Z47	X48	Y48	Z48	X49	Y49	Z49	X50	Y50	Z50	X51	Y51	Z51	X52	Y52	Z52	X53	Y53	Z53	

86	0.85	233.7116394042969	1005.069152832031	1171.972412109375	176.5336456298828	991.3070678710938	1006.48046875	207.3811645507812	1053.486694335938	1087.299438476562	460.0781555175781	1245.251098632812	1021.543579101562	195.0590362548828	1189.133178710938	1090.057983398438	263.8949279785156	1453.70068359375	1074.063110351562	433.2699584960938	1360.65673828125	1027.787719726562	217.3482208251953	1315.883911132812	1160.364135742188	213.7746429443359	1419.506225585938	983.3247680664062	293.3736267089844	1422.204345703125	886.0602416992188	245.6252746582031	1302.036499023438	813.1253051757812	238.4251556396484	1091.093872070312	773.7314453125	212.3123626708984	1070.488037109375	877.3058471679688	329.0773315429688	843.364501953125	780.29248046875	252.5178527832031	840.9111938476562	746.1082763671875	246.3529663085938	982.6373901367188	751.0579833984375	332.2255859375	656.3611450195312	783.4094848632812	277.1128845214844	757.3341064453125	733.093017578125	341.7816772460938	759.9696044921875	764.622314453125	368.6312255859375	1412.382080078125	1226.319580078125	368.4926452636719	1344.501953125	1290.747192382812	328.1498413085938	1088.031127929688	1340.73291015625	321.7443237304688	1060.468383789062	1243.245483398438	448.0681457519531	828.5894165039062	1275.718994140625	389.9219970703125	817.7048950195312	1340.251220703125	337.7724304199219	1004.69580078125	1347.575439453125	424.8794250488281	639.9315795898438	1256.82275390625	460.2449035644531	721.7259521484375	1272.503540039062	415.1722412109375	725.6513061523438	1334.638916015625	291.5045471191406	1632.1201171875	1065.238159179688	501.4672546386719	1652.760620117188	1015.814636230469	408.4408874511719	1656.7421875	931.1812133789062	400.0515747070312	1620.090942382812	1150.133666992188	259.0238037109375	929.4315185546875	894.3829956054688	306.3623046875	933.302490234375	1236.559326171875	426.1978149414062	938.7513427734375	1190.048950195312	378.8870239257812	936.8758544921875	926.1757202148438	491.6521911621094	511.2787780761719	905.46630859375	400.4277648925781	628.332763671875	879.7754516601562	477.8790588378906	43.79439544677734	948.374755859375	479.9729309082031	256.1177062988281	914.0372924804688	663.2900390625	55.83172988891602	866.4136962890625	643.8884887695312	47.99115753173828	933.4711303710938	552.5188598632812	44.11605072021484	870.2400512695312	465.6891784667969	40.97002792358398	1038.856079101562	283.8467407226562	497.3373718261719	1248.014404296875	356.9789428710938	757.9530029296875	1238.759521484375	-46.12162780761719	123.5385055541992	1324.580322265625	205.2294464111328	398.6712646484375	1277.933715820312	125.2932281494141	38.66064071655273	1277.13720703125	79.73381042480469	55.47431945800781	1239.737426757812	56.65449142456055	56.82599258422852	1335.96337890625	-83.469482421875	155.3267974853516	1268.776733398438	
87	0.86	244.1382751464844	1006.394897460938	1166.722290039062	184.9865112304688	992.6489868164062	1001.973083496094	216.9472045898438	1054.393920898438	1082.183471679688	468.3041687011719	1246.886596679688	1013.819030761719	204.1551513671875	1189.900512695312	1084.877563476562	271.9874572753906	1454.734741210938	1068.146728515625	441.2367858886719	1362.208374023438	1020.423706054688	226.4888305664062	1316.7763671875	1154.773803710938	221.1069946289062	1420.478149414062	977.8407592773438	299.9501647949219	1423.623168945312	879.9365844726562	252.0340270996094	1303.365356445312	807.2621459960938	245.295654296875	1092.246704101562	768.2061767578125	219.8492889404297	1071.728393554688	871.87890625	337.3982543945312	845.0908813476562	774.5411376953125	260.6002502441406	842.0879516601562	740.9747924804688	253.6520843505859	983.808349609375	745.6639404296875	341.7130126953125	658.117431640625	778.0457763671875	285.6062316894531	758.6555786132812	727.90380859375	350.47021484375	761.7283935546875	758.9420166015625	377.9386291503906	1413.879760742188	1219.458984375	378.2444152832031	1346.157592773438	1283.865356445312	337.6834716796875	1090.325805664062	1335.157470703125	331.0310363769531	1062.318359375	1237.826782226562	456.8238830566406	830.370361328125	1270.586059570312	398.8109436035156	819.7674560546875	1335.267944335938	347.2365417480469	1006.974731445312	1342.37890625	433.0097351074219	641.764892578125	1251.941528320312	468.6677551269531	723.4613647460938	1267.518676757812	423.7009582519531	727.6077270507812	1329.73486328125	299.2110290527344	1633.476440429688	1059.525390625	508.6264953613281	1654.25	1008.002502441406	414.7666320800781	1658.168701171875	924.292236328125	408.5399475097656	1621.524536132812	1143.320190429688	266.1829528808594	930.26318359375	889.0711669921875	317.5160217285156	934.6648559570312	1230.723388671875	436.6078491210938	939.9893188476562	1182.693481445312	386.4204406738281	937.85205078125	919.3465576171875	497.4863586425781	510.8804321289062	902.2278442382812	406.6110229492188	628.3154296875	875.8106689453125	478.8954772949219	44.0083122253418	947.9142456054688	483.7753601074219	255.8016357421875	912.1801147460938	665.4029541015625	52.2131462097168	866.6555786132812	645.384033203125	45.86053466796875	933.9187622070312	554.1253662109375	43.3402214050293	870.0966796875	466.12646484375	41.6324348449707	1038.33837890625	298.9076843261719	497.5419921875	1243.706787109375	368.8780822753906	758.9180297851562	1232.629150390625	-38.34388732910156	131.6585388183594	1325.35595703125	219.4118347167969	399.989501953125	1274.951049804688	125.9044723510742	38.19551467895508	1277.252075195312	82.33274078369141	56.53108215332031	1240.006103515625	60.20555114746094	58.99380493164062	1336.23583984375	-73.83763122558594	164.8240356445312	1269.495483398438	
88	0.87	254.3272857666016	1007.671997070312	1161.400634765625	193.3120422363281	993.9837036132812	997.391845703125	226.3276214599609	1055.359252929688	1076.977661132812	476.4231872558594	1248.539672851562	1006.143920898438	213.2061157226562	1190.705078125	1079.573974609375	280.0122375488281	1455.80810546875	1062.244873046875	449.1170043945312	1363.782592773438	1013.092651367188	235.5242767333984	1317.712646484375	1149.162353515625	228.3971099853516	1421.483032226562	972.3604125976562	306.4864807128906	1425.080078125	873.8377075195312	258.3927917480469	1304.753784179688	801.3965454101562	252.1203002929688	1093.456909179688	762.6356201171875	227.3247222900391	1073.017822265625	866.401611328125	345.796630859375	846.9381103515625	768.7693481445312	268.7773132324219	843.3338623046875	735.798095703125	260.9623413085938	985.038330078125	740.2249145507812	351.3920288085938	660.0070190429688	772.6749877929688	294.2538452148438	760.0609741210938	722.6920166015625	359.2840881347656	763.6145629882812	753.2510986328125	387.1478881835938	1415.416870117188	1212.612426757812	387.9209289550781	1347.857543945312	1277.001220703125	347.2233276367188	1092.618774414062	1329.5869140625	340.2616577148438	1064.192993164062	1232.427856445312	465.5334167480469	832.14990234375	1265.457153320312	407.6570739746094	821.8546752929688	1330.296264648438	356.726318359375	1009.282836914062	1337.203491210938	440.9814758300781	643.5989990234375	1247.083740234375	476.9869079589844	725.184814453125	1262.545043945312	432.1425170898438	729.5795288085938	1324.84619140625	306.8960876464844	1634.877685546875	1053.85009765625	515.70361328125	1655.751342773438	1000.209716796875	421.0242004394531	1659.627197265625	917.436279296875	416.9644165039062	1622.983276367188	1136.52392578125	273.2173767089844	931.0896606445312	883.7241821289062	328.4632568359375	935.9722290039062	1224.790649414062	446.8253173828125	941.3073120117188	1175.320922851562	393.8153686523438	938.822021484375	912.5149536132812	502.9035949707031	510.3955688476562	899.0361938476562	412.4005737304688	628.1961669921875	871.9082641601562	479.7645874023438	44.21422576904297	947.543701171875	487.1959838867188	255.455078125	910.4461059570312	667.2050170898438	49.08030319213867	866.8872680664062	646.6792602539062	44.09410095214844	934.3784790039062	555.51513671875	42.74789047241211	869.9859619140625	466.4818115234375	42.16909408569336	1037.903076171875	314.7861022949219	497.5858764648438	1239.088134765625	380.9435729980469	759.8724365234375	1226.344848632812	-29.6009693145752	140.2723388671875	1325.9716796875	234.5377349853516	401.1301879882812	1271.616943359375	127.2175598144531	37.76553726196289	1277.304443359375	85.50898742675781	57.99319839477539	1240.168334960938	64.4267578125	61.83324813842773	1336.404418945312	-63.26094436645508	174.6659851074219	1270.073364257812	
89	0.88	264.2352905273438	1008.84619140625	1156.040161132812	201.4751586914062	995.2847900390625	992.7637939453125	235.4797210693359	1056.3671875	1071.7080078125	484.4133911132812	1250.171752929688	998.5586547851562	222.1669769287109	1191.541381835938	1074.164306640625	287.9517211914062	1456.904541015625	1056.374389648438	456.8970642089844	1365.343139648438	1005.826416015625	244.4276123046875	1318.681884765625	1143.54833984375	235.6409454345703	1422.501586914062	966.894775390625	312.9869689941406	1426.536376953125	867.780029296875	264.7044677734375	1306.161987304688	795.545166015625	258.8897094726562	1094.687377929688	757.02099609375	234.7234039306641	1074.315795898438	860.8770751953125	354.2559509277344	848.8714599609375	762.9776611328125	277.0318298339844	844.6094970703125	730.5870971679688	268.2666320800781	986.2893676757812	734.7405395507812	361.2684936523438	662.0015258789062	767.2874145507812	303.0431213378906	761.5147705078125	717.4568481445312	368.2179260253906	765.6012573242188	747.544677734375	396.2401123046875	1416.96337890625	1205.807739257812	397.5000915527344	1349.562866210938	1270.178100585938	356.7611083984375	1094.873779296875	1324.037109375	349.4065551757812	1066.049926757812	1227.0595703125	474.1886901855469	833.8920288085938	1260.33544921875	416.4608154296875	823.9312744140625	1325.3466796875	366.2335205078125	1011.578063964844	1332.063598632812	448.8067016601562	645.3947143554688	1242.28271484375	485.2053833007812	726.86376953125	1257.59716796875	440.5112915039062	731.5352172851562	1319.990234375	314.5403747558594	1636.289184570312	1048.223266601562	522.6842651367188	1657.249633789062	992.4502563476562	427.1969299316406	1661.094482421875	910.6275024414062	425.316162109375	1624.44140625	1129.756958007812	280.0982971191406	931.9044189453125	878.3734741210938	339.1641540527344	937.1610107421875	1218.775268554688	456.8248291015625	942.666259765625	1167.959228515625	401.0458374023438	939.7725219726562	905.71240234375	507.9008178710938	509.8271179199219	895.899169921875	417.8085021972656	627.9840698242188	868.0872802734375	480.4797668457031	44.39947128295898	947.2671508789062	490.2313537597656	255.0743560791016	908.8306274414062	668.685302734375	46.45990371704102	867.099365234375	647.7702026367188	42.65822601318359	934.826171875	556.6746826171875	42.30403518676758	869.9063110351562	466.7638549804688	42.58550262451172	1037.558227539062	331.4328308105469	497.4679870605469	1234.101318359375	393.1576232910156	760.7918090820312	1219.906616210938	-19.86367988586426	149.3170471191406	1326.3671875	250.5562744140625	402.0883483886719	1267.864624023438	129.4643859863281	37.46258544921875	1277.193969726562	89.39598846435547	59.96440505981445	1240.135131835938	69.48594665527344	65.43805694580078	1336.400024414062	-51.79663467407227	184.7755584716797	1270.473999023438	
